<?xml version="1.0" encoding="utf-8"?>
<!-- Generator: Adobe Illustrator 19.1.0, SVG Export Plug-In . SVG Version: 6.00 Build 0)  -->
<svg version="1.1" id="Layer_1" xmlns="http://www.w3.org/2000/svg" xmlns:xlink="http://www.w3.org/1999/xlink" x="0px" y="0px"
	 viewBox="-281 373 48 48" style="enable-background:new -281 373 48 48;" xml:space="preserve">
<style type="text/css">
	.st0{fill:none;}
</style>
<path class="st0" d="M-233,373v48h-48v-48H-233z"/>
<path d="M-275,403v4h4v-4H-275z M-251,411v4h4v-4H-251z M-243,379h-28c-2.2,0-4,1.8-4,4v8h4v-8h28v8h4v-8
	C-239,380.8-240.8,379-243,379z M-239,411h-4v4C-240.8,415-239,413.2-239,411z M-279,395v4h44v-4H-279z M-267,411v4h4v-4H-267z
	 M-243,403v4h4v-4H-243z M-259,411v4h4v-4H-259z M-275,411c0,2.2,1.8,4,4,4v-4H-275z"/>
</svg>
